<svg width="124" height="93" viewBox="0 0 124 93" fill="none" xmlns="http://www.w3.org/2000/svg">
<path d="M19.8277 6.15448C17.3585 -3.00578 -0.949536 0.429259 0.593792 6.15448L26.7398 92.5H116.59C125.805 92.5 125.805 73.8057 116.59 73.8057C106.711 74.273 80.8803 73.8057 80.8803 47.1662C80.8803 19.1247 107.375 19.1247 116.59 19.1247C125.805 19.1247 125.805 0.897693 116.59 0.897693H77.4245C64.4322 0.897677 63.6015 60.4391 44.0188 60.4391C24.436 60.4391 19.8277 6.15448 19.8277 6.15448Z" fill="black"/>
<path d="M0.593792 6.15448L0.111025 6.28462C0.112358 6.28956 0.113766 6.29449 0.11525 6.29939L0.593792 6.15448ZM19.8277 6.15448L20.3259 6.11219C20.3234 6.08251 20.3183 6.05311 20.3105 6.02434L19.8277 6.15448ZM77.4245 0.897693V1.39769V1.39769V0.897693ZM116.59 73.8057V73.3057C116.582 73.3057 116.574 73.3058 116.566 73.3062L116.59 73.8057ZM26.7398 92.5L26.2613 92.6449C26.3252 92.8558 26.5195 93 26.7398 93V92.5ZM0.593792 6.15448L1.07656 6.02434C0.776596 4.91158 1.40016 3.81276 2.87024 2.87216C4.32342 1.94237 6.46156 1.27988 8.7516 1.07035C11.0394 0.861019 13.4229 1.10893 15.3662 1.94425C17.2983 2.77475 18.7759 4.17367 19.345 6.28462L19.8277 6.15448L20.3105 6.02434C19.6449 3.55516 17.908 1.94836 15.7611 1.02553C13.6254 0.107501 11.0655 -0.145547 8.66049 0.074506C6.25778 0.29435 3.95397 0.991583 2.33129 2.02982C0.72551 3.05725 -0.360676 4.53477 0.111025 6.28462L0.593792 6.15448ZM19.8277 6.15448C19.3295 6.19677 19.3296 6.19707 19.3296 6.19757C19.3296 6.19801 19.3297 6.19872 19.3298 6.1996C19.3299 6.20137 19.3301 6.20396 19.3304 6.20737C19.331 6.21418 19.3319 6.22425 19.3331 6.23753C19.3354 6.26411 19.3389 6.30352 19.3436 6.35537C19.353 6.45907 19.3672 6.61251 19.3866 6.81235C19.4253 7.21205 19.4846 7.79744 19.567 8.54202C19.7318 10.0311 19.989 12.1572 20.3589 14.7082C21.0986 19.8085 22.2899 26.6145 24.0964 33.425C25.9011 40.2284 28.3284 47.0704 31.5536 52.2224C34.771 57.3619 38.8621 60.9391 44.0188 60.9391V60.4391V59.9391C39.3841 59.9391 35.5556 56.7307 32.4013 51.6918C29.2548 46.6655 26.8582 39.9364 25.063 33.1686C23.2697 26.408 22.085 19.6427 21.3486 14.5647C20.9805 12.0265 20.7247 9.91164 20.561 8.43203C20.4791 7.69226 20.4203 7.11138 20.3819 6.71589C20.3628 6.51815 20.3487 6.36676 20.3395 6.26504C20.3349 6.21417 20.3315 6.17573 20.3292 6.15012C20.3281 6.13731 20.3273 6.12771 20.3267 6.12137C20.3265 6.1182 20.3263 6.11585 20.3261 6.11432C20.3261 6.11355 20.326 6.11302 20.326 6.11263C20.326 6.11231 20.3259 6.11219 19.8277 6.15448ZM44.0188 60.4391V60.9391C49.2081 60.9391 53.0598 56.9889 56.1121 51.3746C59.1764 45.7382 61.5349 38.2454 63.6736 30.8065C65.8201 23.3407 67.7434 15.9373 69.9424 10.3852C71.0418 7.60959 72.1947 5.33853 73.4523 3.76873C74.7095 2.19952 76.015 1.39769 77.4245 1.39769V0.897693V0.397693C75.586 0.397691 74.0234 1.45652 72.6719 3.14348C71.3208 4.82986 70.1243 7.21046 69.0127 10.0169C66.79 15.6288 64.8456 23.1108 62.7125 30.5302C60.5716 37.9768 58.2387 45.3693 55.2336 50.8969C52.2164 56.4466 48.6208 59.9391 44.0188 59.9391V60.4391ZM77.4245 0.897693V1.39769H116.59V0.897693V0.397693H77.4245V0.897693ZM116.59 0.897693V1.39769C118.703 1.39769 120.285 2.43199 121.359 4.02515C122.443 5.63321 123.002 7.80801 123.002 10.0112C123.002 12.2144 122.443 14.3892 121.359 15.9972C120.285 17.5904 118.703 18.6247 116.59 18.6247V19.1247V19.6247C119.085 19.6247 120.958 18.3806 122.188 16.5562C123.408 14.7467 124.002 12.3648 124.002 10.0112C124.002 7.65761 123.408 5.27567 122.188 3.46617C120.958 1.64177 119.085 0.397693 116.59 0.397693V0.897693ZM116.59 19.1247V18.6247C111.992 18.6247 102.96 18.6188 95.0739 22.174C91.1201 23.9564 87.4386 26.6399 84.748 30.6774C82.0565 34.7162 80.3803 40.0745 80.3803 47.1662H80.8803H81.3803C81.3803 40.2371 83.0159 35.0798 85.5801 31.232C88.1452 27.3828 91.6632 24.8085 95.4849 23.0857C103.149 19.6305 111.973 19.6247 116.59 19.6247V19.1247ZM80.8803 47.1662H80.3803C80.3803 53.9099 82.0163 59.0359 84.6575 62.9143C87.2973 66.7907 90.9172 69.3855 94.8291 71.1086C102.634 74.5465 111.662 74.5394 116.614 74.3051L116.59 73.8057L116.566 73.3062C111.64 73.5393 102.812 73.5321 95.2322 70.1934C91.4515 68.5281 87.9962 66.0404 85.484 62.3514C82.9732 58.6644 81.3803 53.7422 81.3803 47.1662H80.8803ZM116.59 73.8057V74.3057C118.697 74.3057 120.279 75.3634 121.356 77.0013C122.442 78.6538 123.002 80.8889 123.002 83.1528C123.002 85.4167 122.442 87.6518 121.356 89.3044C120.279 90.9423 118.697 92 116.59 92V92.5V93C119.091 93 120.964 91.7209 122.192 89.8536C123.409 88.001 124.002 85.5625 124.002 83.1528C124.002 80.7432 123.409 78.3046 122.192 76.452C120.964 74.5847 119.091 73.3057 116.59 73.3057V73.8057ZM116.59 92.5V92H26.7398V92.5V93H116.59V92.5ZM26.7398 92.5L27.2184 92.3551L1.07233 6.00957L0.593792 6.15448L0.11525 6.29939L26.2613 92.6449L26.7398 92.5Z" fill="black"/>
</svg>
