<svg width="16" height="10" viewBox="0 0 16 10" fill="none" xmlns="http://www.w3.org/2000/svg">
<path d="M4.191 3.158L2.695 3.994V3.785L4.191 4.621L3.85 5.226L2.398 4.379L2.519 4.302L2.53 5.941H1.87L1.881 4.302L2.002 4.379L0.55 5.226L0.209 4.621L1.716 3.785V3.994L0.209 3.158L0.55 2.542L2.002 3.4L1.881 3.477L1.87 1.838H2.53L2.519 3.477L2.398 3.4L3.85 2.542L4.191 3.158ZM8.81014 3.158L7.31414 3.994V3.785L8.81014 4.621L8.46914 5.226L7.01714 4.379L7.13814 4.302L7.14914 5.941H6.48914L6.50014 4.302L6.62114 4.379L5.16914 5.226L4.82814 4.621L6.33514 3.785V3.994L4.82814 3.158L5.16914 2.542L6.62114 3.4L6.50014 3.477L6.48914 1.838H7.14914L7.13814 3.477L7.01714 3.4L8.46914 2.542L8.81014 3.158ZM13.4293 3.158L11.9333 3.994V3.785L13.4293 4.621L13.0883 5.226L11.6363 4.379L11.7573 4.302L11.7683 5.941H11.1083L11.1193 4.302L11.2403 4.379L9.78828 5.226L9.44728 4.621L10.9543 3.785V3.994L9.44728 3.158L9.78828 2.542L11.2403 3.4L11.1193 3.477L11.1083 1.838H11.7683L11.7573 3.477L11.6363 3.4L13.0883 2.542L13.4293 3.158Z" fill="#E7E7E7"/>
<line x1="-4.37114e-08" y1="9.5" x2="15" y2="9.5" stroke="#E7E7E7"/>
</svg>
